<?xml version="1.0" standalone="no"?>
<!DOCTYPE svg PUBLIC "-//W3C//DTD SVG 20010904//EN"
 "http://www.w3.org/TR/2001/REC-SVG-20010904/DTD/svg10.dtd">
<svg version="1.0" xmlns="http://www.w3.org/2000/svg"
 width="980.000000pt" height="980.000000pt" viewBox="0 0 980.000000 980.000000"
 preserveAspectRatio="xMidYMid meet">

<g transform="translate(0.000000,980.000000) scale(0.100000,-0.100000)"
fill="#000000" stroke="none">
<path d="M0 4900 l0 -4900 4900 0 4900 0 0 4900 0 4900 -4900 0 -4900 0 0
-4900z m795 4398 c562 -548 1031 -1163 1450 -1902 116 -205 217 -417 197 -414
-10 2 -16 -3 -14 -11 2 -10 -1 -12 -10 -5 -9 7 -30 6 -63 -1 l-50 -12 35 -7
c19 -3 123 -18 230 -32 524 -68 1442 -320 2072 -569 255 -101 583 -263 738
-366 162 -107 292 -235 341 -334 31 -63 34 -78 34 -155 0 -72 -4 -93 -27 -141
-48 -96 -172 -165 -354 -195 -82 -14 -186 -17 -604 -18 -468 -2 -510 -3 -574
-21 -38 -11 -71 -25 -73 -31 -2 -6 24 -41 58 -78 221 -241 804 -662 2274
-1641 1477 -984 2067 -1430 2555 -1931 231 -237 365 -433 406 -596 24 -92 16
-209 -20 -281 -32 -67 -102 -146 -165 -189 -44 -30 -43 -28 22 37 43 44 80 93
100 134 29 60 32 74 31 156 0 106 -23 170 -100 288 -58 87 -277 309 -434 439
-516 426 -1201 857 -2545 1598 -590 325 -904 499 -1050 583 -717 410 -1083
664 -1370 952 -361 361 -427 655 -199 880 34 33 86 75 117 94 174 104 464 150
860 137 108 -4 197 -3 197 1 -1 19 -392 187 -650 281 -361 130 -887 279 -1268
357 -95 19 -179 35 -186 35 -9 0 8 -56 50 -164 186 -483 330 -1060 400 -1601
26 -198 27 -662 1 -820 -36 -223 -85 -367 -174 -502 -114 -174 -257 -253 -458
-253 -107 0 -192 21 -300 75 -326 161 -729 601 -1112 1215 -300 481 -537 992
-603 1300 -129 606 72 1030 583 1229 225 87 435 122 789 130 l256 6 -102 230
c-385 865 -916 1684 -1465 2259 -129 134 -21 44 174 -146z"/>
<path d="M1646 6414 c-191 -25 -382 -98 -465 -176 -158 -148 -174 -416 -46
-763 50 -137 216 -471 315 -634 242 -400 618 -922 805 -1117 33 -36 60 -66 58
-68 -7 -6 202 -199 273 -253 70 -52 92 -64 78 -41 -4 7 -3 8 5 4 6 -4 9 -11 6
-16 -8 -13 30 -31 49 -24 32 12 17 39 -20 35 -6 -1 -18 6 -25 16 -12 15 -12
16 6 9 14 -5 9 3 -13 23 -18 17 -36 30 -40 29 -4 -2 -19 6 -35 16 -15 10 -36
16 -47 13 -11 -3 -18 -1 -14 4 3 5 16 9 29 9 18 0 23 4 18 16 -4 12 -8 13 -14
3 -6 -10 -13 -9 -33 5 -30 19 -36 32 -6 14 46 -29 104 43 135 167 62 250 86
785 51 1150 -42 438 -112 802 -252 1316 -38 140 -44 173 -33 180 8 5 15 4 17
-1 2 -5 13 -5 25 -1 12 5 46 12 74 16 29 4 55 11 59 16 3 5 3 9 1 9 -2 0 -48
7 -103 15 -292 45 -653 57 -858 29z m779 -2844 c10 -11 25 -20 34 -21 10 0 12
-2 3 -6 -6 -2 -26 7 -43 21 -17 14 -26 26 -21 26 5 0 17 -9 27 -20z"/>
<path d="M5445 5370 c-3 -6 1 -7 9 -4 18 7 21 14 7 14 -6 0 -13 -4 -16 -10z"/>
<path d="M5470 5360 c-8 -5 -10 -10 -5 -10 6 0 17 5 25 10 8 5 11 10 5 10 -5
0 -17 -5 -25 -10z"/>
<path d="M5510 5344 c0 -8 5 -12 10 -9 6 4 8 11 5 16 -9 14 -15 11 -15 -7z"/>
<path d="M5543 5327 c2 -7 18 -16 35 -21 25 -7 29 -11 19 -20 -7 -6 -10 -10
-8 -9 2 1 12 -2 22 -8 12 -6 26 -6 35 -1 12 7 2 16 -46 40 -34 17 -59 25 -57
19z m92 -47 c3 -5 2 -10 -4 -10 -5 0 -13 5 -16 10 -3 6 -2 10 4 10 5 0 13 -4
16 -10z"/>
<path d="M2731 3321 c-11 -7 0 -16 40 -37 72 -38 76 -40 57 -21 -9 10 -21 17
-27 17 -12 0 -15 16 -3 23 4 2 2 2 -5 1 -6 -2 -17 4 -23 12 -14 16 -20 17 -39
5z m34 -19 c-3 -3 -11 0 -18 7 -9 10 -8 11 6 5 10 -3 15 -9 12 -12z"/>
<path d="M2876 3241 c-3 -5 1 -12 10 -15 22 -8 25 -4 9 11 -8 7 -16 9 -19 4z"/>
</g>
</svg>
